<svg xmlns="http://www.w3.org/2000/svg" style="display:none">

  <symbol viewBox="0 0 24 24" fill="none"
    stroke="currentColor" stroke-width="2" stroke-linecap="round" stroke-linejoin="round"
    id="icon-house">
    <path d="M15 21v-8a1 1 0 0 0-1-1h-4a1 1 0 0 0-1 1v8" />
    <path
      d="M3 10a2 2 0 0 1 .709-1.528l7-6a2 2 0 0 1 2.582 0l7 6A2 2 0 0 1 21 10v9a2 2 0 0 1-2 2H5a2 2 0 0 1-2-2z" />
  </symbol>

  <symbol viewBox="0 0 24 24" fill="none"
    stroke="currentColor" stroke-width="2" stroke-linecap="round" stroke-linejoin="round"
    id="icon-timer">
    <line x1="10" x2="14" y1="2" y2="2" />
    <line x1="12" x2="15" y1="14" y2="11" />
    <circle cx="12" cy="14" r="8" />
  </symbol>

  <symbol viewBox="0 0 24 24" fill="none"
    stroke="currentColor" stroke-width="2" stroke-linecap="round" stroke-linejoin="round"
    id="icon-task">
    <rect width="8" height="4" x="8" y="2" rx="1" ry="1" />
    <path d="M16 4h2a2 2 0 0 1 2 2v14a2 2 0 0 1-2 2H6a2 2 0 0 1-2-2V6a2 2 0 0 1 2-2h2" />
    <path d="m9 14 2 2 4-4" />
  </symbol>

  <symbol viewBox="0 0 24 24" fill="none"
    stroke="currentColor" stroke-width="2" stroke-linecap="round" stroke-linejoin="round"
    id="icon-notes">
    <path d="M2 6h4" />
    <path d="M2 10h4" />
    <path d="M2 14h4" />
    <path d="M2 18h4" />
    <rect width="16" height="20" x="4" y="2" rx="2" />
    <path d="M9.5 8h5" />
    <path d="M9.5 12H16" />
    <path d="M9.5 16H14" />
  </symbol>

  <symbol viewBox="0 0 24 24" fill="none"
    stroke="currentColor" stroke-width="2" stroke-linecap="round" stroke-linejoin="round"
    id="icon-music">
    <path d="M9 18V5l12-2v13" />
    <circle cx="6" cy="18" r="3" />
    <circle cx="18" cy="16" r="3" />
  </symbol>
</svg>